<svg xmlns="http://www.w3.org/2000/svg" width="49.224" height="49.224"
    viewBox="0 0 49.224 49.224">
    <path id="Path_134152" data-name="Path 134152"
        d="M12.306,0H36.918A12.306,12.306,0,0,1,49.224,12.306V36.918A12.306,12.306,0,0,1,36.918,49.224H12.306A12.306,12.306,0,0,1,0,36.918V12.306A12.306,12.306,0,0,1,12.306,0Z"
        fill="#e7ecf4" />
    <rect id="Rectangle_4615" data-name="Rectangle 4615" width="39" height="39"
        rx="8" transform="translate(5 5)" fill="#20c5ba" />
    <path id="Path_131063" data-name="Path 131063"
        d="M14,2H6A2,2,0,0,0,4,4V20a2,2,0,0,0,2,2H18a2,2,0,0,0,2-2V8Z"
        transform="translate(13 12)" fill="none" stroke="#fff"
        stroke-linecap="round" stroke-linejoin="round" stroke-width="2" />
    <path id="Path_131064" data-name="Path 131064" d="M14,2V8h6"
        transform="translate(13 12)" fill="none" stroke="#fff"
        stroke-linecap="round" stroke-linejoin="round" stroke-width="2" />
    <line id="Line_951" data-name="Line 951" y1="6" transform="translate(25 24)"
        fill="none" stroke="#fff" stroke-linecap="round" stroke-linejoin="round"
        stroke-width="2" />
    <line id="Line_952" data-name="Line 952" x2="6" transform="translate(22 27)"
        fill="none" stroke="#fff" stroke-linecap="round" stroke-linejoin="round"
        stroke-width="2" />
</svg>