<svg xmlns="http://www.w3.org/2000/svg" xmlns:xlink="http://www.w3.org/1999/xlink" width="48" height="43.333" viewBox="0 0 48 43.333">
  <defs>
    <filter id="Polygon_13" x="0" y="0" width="48" height="43.333" filterUnits="userSpaceOnUse">
      <feOffset dy="5" input="SourceAlpha"/>
      <feGaussianBlur stdDeviation="4" result="blur"/>
      <feFlood flood-opacity="0.11"/>
      <feComposite operator="in" in2="blur"/>
      <feComposite in="SourceGraphic"/>
    </filter>
  </defs>
  <g transform="matrix(1, 0, 0, 1, 0, 0)" filter="url(#Polygon_13)">
    <g id="Polygon_13-2" data-name="Polygon 13" transform="translate(12 7)" fill="#fff">
      <path d="M 20.4046802520752 18.33332824707031 L 3.595319986343384 18.33332824707031 C 3.064579963684082 18.33332824707031 2.807379961013794 17.97395706176758 2.721430063247681 17.8194580078125 C 2.635479927062988 17.66494750976563 2.465790033340454 17.25689697265625 2.745680093765259 16.80597877502441 L 11.15036010742188 3.265087842941284 C 11.41514015197754 2.838507890701294 11.83273983001709 2.792457818984985 12 2.792457818984985 C 12.16726016998291 2.792457818984985 12.58485984802246 2.838507890701294 12.84963989257813 3.265097856521606 L 21.25432014465332 16.80596733093262 C 21.53421020507813 17.25689697265625 21.3645191192627 17.66494750976563 21.2785701751709 17.8194580078125 C 21.19261932373047 17.97395706176758 20.9354190826416 18.33332824707031 20.4046802520752 18.33332824707031 Z" stroke="none"/>
      <path d="M 12 3.792457580566406 L 3.595319747924805 17.33332824707031 L 20.4046802520752 17.33333778381348 L 12 3.792457580566406 M 12 1.792457580566406 C 12.65406513214111 1.792457580566406 13.30813026428223 2.107547760009766 13.69927978515625 2.737728118896484 L 22.10396003723145 16.27860832214355 C 22.93091011047363 17.61090850830078 21.97277069091797 19.33332824707031 20.4046802520752 19.33332824707031 L 3.595319747924805 19.33332824707031 C 2.027229309082031 19.33332824707031 1.069089889526367 17.61090850830078 1.896039962768555 16.27860832214355 L 10.30072021484375 2.737728118896484 C 10.69186973571777 2.107547760009766 11.34593486785889 1.792457580566406 12 1.792457580566406 Z" stroke="none" fill="#20c5ba"/>
    </g>
  </g>
</svg>
